<svg width="86" height="104" viewBox="0 0 86 104" fill="none" xmlns="http://www.w3.org/2000/svg">
<path d="M3.66699 32.3333C3.66699 18.4268 3.66699 11.4736 7.98717 7.15343C12.3073 2.83325 19.2605 2.83325 33.167 2.83325H52.8337C66.74 2.83325 73.6931 2.83325 78.0134 7.15343C82.3337 11.4736 82.3337 18.4268 82.3337 32.3333V71.6666C82.3337 85.5729 82.3337 92.526 78.0134 96.8463C73.6931 101.167 66.74 101.167 52.8337 101.167H33.167C19.2605 101.167 12.3073 101.167 7.98717 96.8463C3.66699 92.526 3.66699 85.5729 3.66699 71.6666V32.3333Z" stroke="black" stroke-width="5.5"/>
<path d="M81.8312 71.6665H22.8311C18.2587 71.6665 15.9725 71.6665 14.0968 72.169C9.00669 73.5329 5.03088 77.509 3.66699 82.5987" stroke="black" stroke-width="5.5"/>
<path d="M18.417 71.6665V5.2915" stroke="black" stroke-width="5.5" stroke-linecap="round"/>
<path d="M47.9167 71.6665V89.0268C47.9167 90.3818 47.9167 91.0593 47.4501 91.3332C46.984 91.607 46.3463 91.3042 45.0704 90.6979L38.9629 87.7971C38.5312 87.5921 38.3154 87.4893 38.0833 87.4893C37.8513 87.4893 37.6354 87.5921 37.2037 87.7971L31.0962 90.6979C29.8205 91.3042 29.1827 91.607 28.7163 91.3332C28.25 91.0593 28.25 90.3818 28.25 89.0268V73.879" stroke="black" stroke-width="5.5" stroke-linecap="round"/>
</svg>
